<svg xmlns="http://www.w3.org/2000/svg" xmlns:xlink="http://www.w3.org/1999/xlink" width="50" zoomAndPan="magnify" viewBox="0 0 37.5 37.499999" height="50" preserveAspectRatio="xMidYMid meet" version="1.0"><defs><g/><clipPath id="59d0f38e1a"><path d="M 0 0 L 37.007812 0 L 37.007812 37.007812 L 0 37.007812 Z M 0 0 " clip-rule="nonzero"/></clipPath><clipPath id="a2af46c98f"><path d="M 1.007812 15.691406 L 35.480469 15.691406 L 35.480469 21.511719 L 1.007812 21.511719 Z M 1.007812 15.691406 " clip-rule="nonzero"/></clipPath></defs><g clip-path="url(#59d0f38e1a)"><path fill="#ffffff" d="M 0 0 L 37.007812 0 L 37.007812 37.007812 L 0 37.007812 Z M 0 0 " fill-opacity="1" fill-rule="nonzero"/><path fill="#8095c7" d="M 0 0 L 37.007812 0 L 37.007812 37.007812 L 0 37.007812 Z M 0 0 " fill-opacity="1" fill-rule="nonzero"/></g><g fill="#415175" fill-opacity="1"><g transform="translate(-0.00790803, 25.927574)"><g><path d="M 15.453125 -1.765625 L 15.484375 -0.53125 C 15.484375 -0.3125 15.421875 -0.144531 15.296875 -0.03125 C 15.179688 0.0820312 15.039062 0.140625 14.875 0.140625 C 14.71875 0.140625 14.59375 0.0859375 14.5 -0.015625 C 14.40625 -0.128906 14.359375 -0.265625 14.359375 -0.421875 C 14.359375 -0.585938 14.378906 -0.769531 14.421875 -0.96875 C 14.484375 -1.226562 14.515625 -1.859375 14.515625 -2.859375 L 14.515625 -11.75 L 8.375 -11.75 L 8.375 0 L 2.15625 0 L 2.15625 -17.234375 L 8.375 -17.234375 L 8.375 -12.640625 C 10.132812 -12.640625 11.535156 -12.640625 12.578125 -12.640625 C 13.617188 -12.640625 14.265625 -12.644531 14.515625 -12.65625 L 14.515625 -14.78125 C 14.515625 -15.488281 14.5 -15.945312 14.46875 -16.15625 L 14.421875 -16.515625 C 14.410156 -16.628906 14.40625 -16.726562 14.40625 -16.8125 C 14.40625 -17.1875 14.578125 -17.375 14.921875 -17.375 C 15.046875 -17.375 15.171875 -17.320312 15.296875 -17.21875 C 15.429688 -17.125 15.5 -16.960938 15.5 -16.734375 L 15.453125 -15.1875 L 15.453125 -12.703125 L 16.21875 -12.8125 C 16.363281 -12.8125 16.484375 -12.769531 16.578125 -12.6875 C 16.679688 -12.601562 16.734375 -12.492188 16.734375 -12.359375 C 16.734375 -12.035156 16.476562 -11.851562 15.96875 -11.8125 C 15.882812 -11.800781 15.796875 -11.789062 15.703125 -11.78125 C 15.617188 -11.78125 15.535156 -11.773438 15.453125 -11.765625 Z M 15.453125 -1.765625 "/></g></g></g><g fill="#d9dbde" fill-opacity="1"><g transform="translate(15.348634, 25.927574)"><g><path d="M 15.03125 -1.234375 C 13.539062 -0.253906 11.835938 0.234375 9.921875 0.234375 C 8.722656 0.234375 7.585938 0.0234375 6.515625 -0.390625 C 5.441406 -0.816406 4.503906 -1.414062 3.703125 -2.1875 C 1.953125 -3.90625 1.078125 -6.117188 1.078125 -8.828125 C 1.078125 -11.296875 1.925781 -13.347656 3.625 -14.984375 C 5.320312 -16.628906 7.460938 -17.453125 10.046875 -17.453125 C 12.597656 -17.453125 14.691406 -16.644531 16.328125 -15.03125 C 17.984375 -13.394531 18.8125 -11.269531 18.8125 -8.65625 C 18.8125 -7.1875 18.535156 -5.867188 17.984375 -4.703125 C 17.441406 -3.535156 16.691406 -2.554688 15.734375 -1.765625 L 16.890625 -0.859375 C 17.441406 -0.453125 17.800781 -0.226562 17.96875 -0.1875 C 18.144531 -0.144531 18.320312 -0.113281 18.5 -0.09375 C 18.863281 -0.0703125 19.046875 0.0703125 19.046875 0.34375 C 19.046875 0.675781 18.828125 0.84375 18.390625 0.84375 C 18.046875 0.84375 17.71875 0.742188 17.40625 0.546875 C 17.09375 0.359375 16.757812 0.128906 16.40625 -0.140625 Z M 10.03125 -16.578125 C 9.582031 -16.578125 9.160156 -16.539062 8.765625 -16.46875 L 8.765625 -0.75 C 9.140625 -0.6875 9.640625 -0.65625 10.265625 -0.65625 C 11.660156 -0.65625 12.992188 -1.054688 14.265625 -1.859375 C 13.398438 -2.484375 12.609375 -2.796875 11.890625 -2.796875 C 11.648438 -2.796875 11.46875 -2.84375 11.34375 -2.9375 C 11.226562 -3.03125 11.171875 -3.148438 11.171875 -3.296875 C 11.171875 -3.617188 11.390625 -3.78125 11.828125 -3.78125 C 12.679688 -3.78125 13.738281 -3.304688 15 -2.359375 C 15.863281 -3.054688 16.550781 -3.9375 17.0625 -5 C 17.582031 -6.0625 17.84375 -7.210938 17.84375 -8.453125 C 17.84375 -9.703125 17.648438 -10.8125 17.265625 -11.78125 C 16.878906 -12.75 16.34375 -13.585938 15.65625 -14.296875 C 14.1875 -15.816406 12.3125 -16.578125 10.03125 -16.578125 Z M 10.03125 -16.578125 "/></g></g></g><g clip-path="url(#a2af46c98f)"><path fill="#8095c7" d="M 1.007812 15.691406 L 35.476562 15.691406 L 35.476562 21.511719 L 1.007812 21.511719 Z M 1.007812 15.691406 " fill-opacity="1" fill-rule="nonzero"/></g><g fill="#000000" fill-opacity="1"><g transform="translate(3.015321, 31.355295)"><g><path d="M 0.8125 0 L 0.8125 -1.53125 L 0.203125 -1.53125 L 0.203125 -1.796875 L 1.734375 -1.796875 L 1.734375 -1.53125 L 1.09375 -1.53125 L 1.09375 0 Z M 0.8125 0 "/></g></g></g><g fill="#000000" fill-opacity="1"><g transform="translate(6.36025, 31.355295)"><g><path d="M 0.390625 -1.796875 L 1.765625 -1.796875 L 1.765625 -1.53125 L 0.671875 -1.53125 L 0.671875 -1.0625 L 1.609375 -1.0625 L 1.609375 -0.796875 L 0.671875 -0.796875 L 0.671875 -0.265625 L 1.765625 -0.265625 L 1.765625 0 L 0.390625 0 Z M 0.390625 -1.796875 "/></g></g></g><g fill="#000000" fill-opacity="1"><g transform="translate(9.867389, 31.355295)"><g><path d="M 1.984375 -0.25 C 1.941406 -0.207031 1.878906 -0.164062 1.796875 -0.125 C 1.722656 -0.0820312 1.632812 -0.046875 1.53125 -0.015625 C 1.4375 0.015625 1.335938 0.03125 1.234375 0.03125 C 1.097656 0.03125 0.96875 0.0078125 0.84375 -0.03125 C 0.726562 -0.0820312 0.625 -0.144531 0.53125 -0.21875 C 0.445312 -0.300781 0.378906 -0.398438 0.328125 -0.515625 C 0.273438 -0.628906 0.25 -0.757812 0.25 -0.90625 C 0.25 -1.03125 0.273438 -1.148438 0.328125 -1.265625 C 0.378906 -1.378906 0.453125 -1.476562 0.546875 -1.5625 C 0.640625 -1.644531 0.742188 -1.707031 0.859375 -1.75 C 0.984375 -1.789062 1.109375 -1.8125 1.234375 -1.8125 C 1.347656 -1.8125 1.453125 -1.796875 1.546875 -1.765625 C 1.648438 -1.742188 1.738281 -1.707031 1.8125 -1.65625 C 1.894531 -1.613281 1.960938 -1.566406 2.015625 -1.515625 L 1.828125 -1.296875 C 1.753906 -1.367188 1.664062 -1.425781 1.5625 -1.46875 C 1.457031 -1.519531 1.34375 -1.546875 1.21875 -1.546875 C 1.132812 -1.546875 1.050781 -1.53125 0.96875 -1.5 C 0.882812 -1.46875 0.8125 -1.421875 0.75 -1.359375 C 0.6875 -1.304688 0.632812 -1.238281 0.59375 -1.15625 C 0.550781 -1.082031 0.53125 -1 0.53125 -0.90625 C 0.53125 -0.757812 0.566406 -0.632812 0.640625 -0.53125 C 0.710938 -0.4375 0.800781 -0.363281 0.90625 -0.3125 C 1.019531 -0.269531 1.140625 -0.25 1.265625 -0.25 C 1.347656 -0.25 1.425781 -0.257812 1.5 -0.28125 C 1.570312 -0.300781 1.632812 -0.328125 1.6875 -0.359375 C 1.75 -0.398438 1.800781 -0.441406 1.84375 -0.484375 Z M 1.984375 -0.25 "/></g></g></g><g fill="#000000" fill-opacity="1"><g transform="translate(13.529014, 31.355295)"><g><path d="M 1.921875 -1.796875 L 2.1875 -1.796875 L 2.1875 0 L 1.921875 0 L 0.625 -1.40625 C 0.632812 -1.289062 0.644531 -1.179688 0.65625 -1.078125 C 0.664062 -0.972656 0.671875 -0.863281 0.671875 -0.75 L 0.671875 0 L 0.390625 0 L 0.390625 -1.796875 L 0.65625 -1.796875 L 1.953125 -0.359375 C 1.941406 -0.453125 1.929688 -0.546875 1.921875 -0.640625 C 1.921875 -0.734375 1.921875 -0.828125 1.921875 -0.921875 C 1.921875 -1.023438 1.921875 -1.125 1.921875 -1.21875 Z M 1.921875 -1.796875 "/></g></g></g><g fill="#000000" fill-opacity="1"><g transform="translate(17.527929, 31.355295)"><g><path d="M 2.296875 -0.90625 C 2.296875 -0.769531 2.269531 -0.644531 2.21875 -0.53125 C 2.164062 -0.425781 2.09375 -0.328125 2 -0.234375 C 1.90625 -0.148438 1.796875 -0.0820312 1.671875 -0.03125 C 1.554688 0.0078125 1.421875 0.03125 1.265625 0.03125 C 1.117188 0.03125 0.984375 0.0078125 0.859375 -0.03125 C 0.734375 -0.0820312 0.625 -0.148438 0.53125 -0.234375 C 0.445312 -0.328125 0.378906 -0.425781 0.328125 -0.53125 C 0.273438 -0.644531 0.25 -0.769531 0.25 -0.90625 C 0.25 -1.03125 0.273438 -1.148438 0.328125 -1.265625 C 0.378906 -1.378906 0.445312 -1.476562 0.53125 -1.5625 C 0.625 -1.644531 0.734375 -1.707031 0.859375 -1.75 C 0.984375 -1.800781 1.117188 -1.828125 1.265625 -1.828125 C 1.421875 -1.828125 1.554688 -1.800781 1.671875 -1.75 C 1.796875 -1.707031 1.90625 -1.644531 2 -1.5625 C 2.09375 -1.476562 2.164062 -1.378906 2.21875 -1.265625 C 2.269531 -1.148438 2.296875 -1.03125 2.296875 -0.90625 Z M 2 -0.90625 C 2 -1.03125 1.96875 -1.140625 1.90625 -1.234375 C 1.84375 -1.335938 1.753906 -1.414062 1.640625 -1.46875 C 1.535156 -1.53125 1.410156 -1.5625 1.265625 -1.5625 C 1.117188 -1.5625 0.988281 -1.53125 0.875 -1.46875 C 0.769531 -1.414062 0.6875 -1.335938 0.625 -1.234375 C 0.5625 -1.140625 0.53125 -1.03125 0.53125 -0.90625 C 0.53125 -0.78125 0.5625 -0.664062 0.625 -0.5625 C 0.6875 -0.46875 0.769531 -0.390625 0.875 -0.328125 C 0.988281 -0.273438 1.117188 -0.25 1.265625 -0.25 C 1.410156 -0.25 1.535156 -0.273438 1.640625 -0.328125 C 1.753906 -0.390625 1.84375 -0.46875 1.90625 -0.5625 C 1.96875 -0.664062 2 -0.78125 2 -0.90625 Z M 2 -0.90625 "/></g></g></g><g fill="#000000" fill-opacity="1"><g transform="translate(21.485648, 31.355295)"><g><path d="M 1.75 -0.265625 L 1.75 0 L 0.390625 0 L 0.390625 -1.796875 L 0.671875 -1.796875 L 0.671875 -0.265625 Z M 1.75 -0.265625 "/></g></g></g><g fill="#000000" fill-opacity="1"><g transform="translate(24.936144, 31.355295)"><g><path d="M 2.296875 -0.90625 C 2.296875 -0.769531 2.269531 -0.644531 2.21875 -0.53125 C 2.164062 -0.425781 2.09375 -0.328125 2 -0.234375 C 1.90625 -0.148438 1.796875 -0.0820312 1.671875 -0.03125 C 1.554688 0.0078125 1.421875 0.03125 1.265625 0.03125 C 1.117188 0.03125 0.984375 0.0078125 0.859375 -0.03125 C 0.734375 -0.0820312 0.625 -0.148438 0.53125 -0.234375 C 0.445312 -0.328125 0.378906 -0.425781 0.328125 -0.53125 C 0.273438 -0.644531 0.25 -0.769531 0.25 -0.90625 C 0.25 -1.03125 0.273438 -1.148438 0.328125 -1.265625 C 0.378906 -1.378906 0.445312 -1.476562 0.53125 -1.5625 C 0.625 -1.644531 0.734375 -1.707031 0.859375 -1.75 C 0.984375 -1.800781 1.117188 -1.828125 1.265625 -1.828125 C 1.421875 -1.828125 1.554688 -1.800781 1.671875 -1.75 C 1.796875 -1.707031 1.90625 -1.644531 2 -1.5625 C 2.09375 -1.476562 2.164062 -1.378906 2.21875 -1.265625 C 2.269531 -1.148438 2.296875 -1.03125 2.296875 -0.90625 Z M 2 -0.90625 C 2 -1.03125 1.96875 -1.140625 1.90625 -1.234375 C 1.84375 -1.335938 1.753906 -1.414062 1.640625 -1.46875 C 1.535156 -1.53125 1.410156 -1.5625 1.265625 -1.5625 C 1.117188 -1.5625 0.988281 -1.53125 0.875 -1.46875 C 0.769531 -1.414062 0.6875 -1.335938 0.625 -1.234375 C 0.5625 -1.140625 0.53125 -1.03125 0.53125 -0.90625 C 0.53125 -0.78125 0.5625 -0.664062 0.625 -0.5625 C 0.6875 -0.46875 0.769531 -0.390625 0.875 -0.328125 C 0.988281 -0.273438 1.117188 -0.25 1.265625 -0.25 C 1.410156 -0.25 1.535156 -0.273438 1.640625 -0.328125 C 1.753906 -0.390625 1.84375 -0.46875 1.90625 -0.5625 C 1.96875 -0.664062 2 -0.78125 2 -0.90625 Z M 2 -0.90625 "/></g></g></g><g fill="#000000" fill-opacity="1"><g transform="translate(28.893864, 31.355295)"><g><path d="M 1.296875 -1.8125 C 1.421875 -1.8125 1.535156 -1.796875 1.640625 -1.765625 C 1.742188 -1.742188 1.832031 -1.707031 1.90625 -1.65625 C 1.988281 -1.613281 2.050781 -1.566406 2.09375 -1.515625 L 1.921875 -1.3125 C 1.835938 -1.382812 1.742188 -1.441406 1.640625 -1.484375 C 1.535156 -1.523438 1.421875 -1.546875 1.296875 -1.546875 C 1.160156 -1.546875 1.035156 -1.515625 0.921875 -1.453125 C 0.804688 -1.398438 0.710938 -1.328125 0.640625 -1.234375 C 0.578125 -1.140625 0.546875 -1.03125 0.546875 -0.90625 C 0.546875 -0.757812 0.582031 -0.632812 0.65625 -0.53125 C 0.726562 -0.4375 0.816406 -0.363281 0.921875 -0.3125 C 1.035156 -0.269531 1.160156 -0.25 1.296875 -0.25 C 1.421875 -0.25 1.53125 -0.265625 1.625 -0.296875 C 1.726562 -0.328125 1.804688 -0.367188 1.859375 -0.421875 C 1.921875 -0.484375 1.953125 -0.554688 1.953125 -0.640625 L 1.296875 -0.640625 L 1.296875 -0.90625 L 2.25 -0.90625 C 2.25 -0.882812 2.25 -0.863281 2.25 -0.84375 C 2.257812 -0.820312 2.265625 -0.800781 2.265625 -0.78125 C 2.265625 -0.6875 2.25 -0.59375 2.21875 -0.5 C 2.1875 -0.414062 2.144531 -0.347656 2.09375 -0.296875 C 2.007812 -0.191406 1.894531 -0.109375 1.75 -0.046875 C 1.613281 0.00390625 1.457031 0.03125 1.28125 0.03125 C 1.132812 0.03125 1 0.0078125 0.875 -0.03125 C 0.757812 -0.0703125 0.65625 -0.132812 0.5625 -0.21875 C 0.46875 -0.300781 0.390625 -0.398438 0.328125 -0.515625 C 0.273438 -0.628906 0.25 -0.757812 0.25 -0.90625 C 0.25 -1.03125 0.273438 -1.148438 0.328125 -1.265625 C 0.390625 -1.378906 0.46875 -1.476562 0.5625 -1.5625 C 0.65625 -1.644531 0.765625 -1.707031 0.890625 -1.75 C 1.015625 -1.789062 1.148438 -1.8125 1.296875 -1.8125 Z M 1.296875 -1.8125 "/></g></g></g><g fill="#000000" fill-opacity="1"><g transform="translate(32.802664, 31.355295)"><g><path d="M 2.046875 -1.796875 L 1.265625 -0.734375 L 1.265625 0 L 0.984375 0 L 0.984375 -0.71875 L 0.140625 -1.796875 L 0.515625 -1.796875 L 1.125 -0.984375 L 1.71875 -1.796875 Z M 2.046875 -1.796875 "/></g></g></g><g fill="#000000" fill-opacity="1"><g transform="translate(9.314042, 19.218058)"><g><path d="M 1.984375 0.890625 C 1.941406 0.890625 1.921875 0.875 1.921875 0.84375 C 1.929688 0.8125 1.941406 0.78125 1.953125 0.75 C 2.078125 0.5 2.222656 0.25 2.390625 0 C 2.566406 -0.257812 2.796875 -0.578125 3.078125 -0.953125 C 2.753906 -0.960938 2.429688 -0.960938 2.109375 -0.953125 C 1.785156 -0.941406 1.484375 -0.921875 1.203125 -0.890625 C 1.035156 -0.648438 0.867188 -0.414062 0.703125 -0.1875 C 0.546875 0.0390625 0.40625 0.25 0.28125 0.4375 C 0.257812 0.445312 0.242188 0.453125 0.234375 0.453125 C 0.203125 0.453125 0.1875 0.441406 0.1875 0.421875 C 0.1875 0.398438 0.1875 0.382812 0.1875 0.375 C 0.3125 0.195312 0.445312 0 0.59375 -0.21875 C 0.75 -0.4375 0.90625 -0.65625 1.0625 -0.875 C 0.96875 -0.875 0.875 -0.863281 0.78125 -0.84375 C 0.6875 -0.832031 0.597656 -0.820312 0.515625 -0.8125 C 0.484375 -0.8125 0.46875 -0.828125 0.46875 -0.859375 C 0.46875 -0.890625 0.484375 -0.90625 0.515625 -0.90625 C 0.609375 -0.925781 0.703125 -0.941406 0.796875 -0.953125 C 0.898438 -0.960938 1.003906 -0.972656 1.109375 -0.984375 C 1.128906 -0.984375 1.144531 -0.992188 1.15625 -1.015625 C 1.414062 -1.367188 1.664062 -1.707031 1.90625 -2.03125 C 2.15625 -2.351562 2.367188 -2.609375 2.546875 -2.796875 C 2.554688 -2.804688 2.570312 -2.8125 2.59375 -2.8125 C 2.625 -2.8125 2.640625 -2.796875 2.640625 -2.765625 C 2.640625 -2.753906 2.632812 -2.742188 2.625 -2.734375 C 2.457031 -2.546875 2.25 -2.296875 2 -1.984375 C 1.757812 -1.671875 1.519531 -1.34375 1.28125 -1 C 1.5625 -1.019531 1.859375 -1.035156 2.171875 -1.046875 C 2.492188 -1.066406 2.816406 -1.066406 3.140625 -1.046875 C 3.421875 -1.421875 3.695312 -1.765625 3.96875 -2.078125 C 4.238281 -2.398438 4.472656 -2.660156 4.671875 -2.859375 C 4.679688 -2.867188 4.691406 -2.875 4.703125 -2.875 C 4.734375 -2.875 4.75 -2.851562 4.75 -2.8125 C 4.75 -2.800781 4.742188 -2.789062 4.734375 -2.78125 C 4.546875 -2.59375 4.320312 -2.34375 4.0625 -2.03125 C 3.800781 -1.726562 3.539062 -1.398438 3.28125 -1.046875 C 3.488281 -1.046875 3.703125 -1.039062 3.921875 -1.03125 C 3.953125 -1.03125 3.96875 -1.007812 3.96875 -0.96875 C 3.96875 -0.945312 3.953125 -0.9375 3.921875 -0.9375 L 3.90625 -0.9375 L 3.203125 -0.953125 C 2.929688 -0.597656 2.710938 -0.300781 2.546875 -0.0625 C 2.390625 0.175781 2.242188 0.425781 2.109375 0.6875 C 2.140625 0.695312 2.144531 0.71875 2.125 0.75 C 2.101562 0.789062 2.078125 0.820312 2.046875 0.84375 C 2.023438 0.875 2.003906 0.890625 1.984375 0.890625 Z M 1.984375 0.890625 "/></g></g></g><g fill="#000000" fill-opacity="1"><g transform="translate(13.483412, 19.218058)"><g><path d="M 0.296875 0.03125 C 0.160156 0.03125 0.0546875 0.0078125 -0.015625 -0.03125 C -0.0859375 -0.0820312 -0.125 -0.15625 -0.125 -0.25 C -0.125 -0.351562 -0.0820312 -0.457031 0 -0.5625 C 0.0820312 -0.675781 0.179688 -0.773438 0.296875 -0.859375 C 0.410156 -0.941406 0.515625 -0.984375 0.609375 -0.984375 C 0.710938 -0.984375 0.765625 -0.9375 0.765625 -0.84375 C 0.765625 -0.78125 0.722656 -0.722656 0.640625 -0.671875 C 0.566406 -0.617188 0.488281 -0.59375 0.40625 -0.59375 C 0.300781 -0.59375 0.226562 -0.601562 0.1875 -0.625 C 0.125 -0.570312 0.0703125 -0.507812 0.03125 -0.4375 C 0 -0.375 -0.015625 -0.3125 -0.015625 -0.25 C -0.015625 -0.132812 0.0859375 -0.078125 0.296875 -0.078125 C 0.378906 -0.078125 0.515625 -0.101562 0.703125 -0.15625 C 0.898438 -0.207031 1.113281 -0.285156 1.34375 -0.390625 C 1.570312 -0.492188 1.789062 -0.617188 2 -0.765625 C 2 -0.765625 2.003906 -0.765625 2.015625 -0.765625 C 2.054688 -0.765625 2.078125 -0.75 2.078125 -0.71875 C 2.078125 -0.707031 2.066406 -0.695312 2.046875 -0.6875 C 1.835938 -0.53125 1.613281 -0.398438 1.375 -0.296875 C 1.144531 -0.191406 0.929688 -0.109375 0.734375 -0.046875 C 0.535156 0.00390625 0.390625 0.03125 0.296875 0.03125 Z M 0.40625 -0.6875 C 0.457031 -0.6875 0.515625 -0.707031 0.578125 -0.75 C 0.640625 -0.789062 0.671875 -0.820312 0.671875 -0.84375 C 0.671875 -0.863281 0.648438 -0.875 0.609375 -0.875 C 0.554688 -0.875 0.5 -0.859375 0.4375 -0.828125 C 0.382812 -0.796875 0.328125 -0.753906 0.265625 -0.703125 C 0.285156 -0.703125 0.304688 -0.695312 0.328125 -0.6875 C 0.347656 -0.6875 0.375 -0.6875 0.40625 -0.6875 Z M 0.40625 -0.6875 "/></g></g></g><g fill="#000000" fill-opacity="1"><g transform="translate(15.298106, 19.218058)"><g><path d="M 0.046875 0.390625 C -0.140625 0.390625 -0.234375 0.304688 -0.234375 0.140625 C -0.234375 -0.015625 -0.164062 -0.210938 -0.03125 -0.453125 C 0.09375 -0.691406 0.265625 -0.957031 0.484375 -1.25 C 0.710938 -1.539062 0.960938 -1.835938 1.234375 -2.140625 C 1.515625 -2.453125 1.800781 -2.75 2.09375 -3.03125 C 2.382812 -3.320312 2.660156 -3.578125 2.921875 -3.796875 C 3.191406 -4.023438 3.429688 -4.207031 3.640625 -4.34375 C 3.847656 -4.476562 4.007812 -4.546875 4.125 -4.546875 C 4.25 -4.546875 4.3125 -4.488281 4.3125 -4.375 C 4.3125 -4.289062 4.242188 -4.160156 4.109375 -3.984375 C 3.984375 -3.804688 3.804688 -3.601562 3.578125 -3.375 C 3.359375 -3.144531 3.101562 -2.898438 2.8125 -2.640625 C 2.53125 -2.390625 2.234375 -2.140625 1.921875 -1.890625 C 1.609375 -1.640625 1.300781 -1.40625 1 -1.1875 C 0.707031 -0.976562 0.429688 -0.796875 0.171875 -0.640625 C -0.0351562 -0.304688 -0.140625 -0.046875 -0.140625 0.140625 C -0.140625 0.191406 -0.125 0.226562 -0.09375 0.25 C -0.0703125 0.28125 -0.0234375 0.296875 0.046875 0.296875 C 0.140625 0.296875 0.296875 0.25 0.515625 0.15625 C 0.734375 0.0625 0.976562 -0.0625 1.25 -0.21875 C 1.53125 -0.382812 1.8125 -0.566406 2.09375 -0.765625 C 2.09375 -0.765625 2.101562 -0.765625 2.125 -0.765625 C 2.15625 -0.765625 2.171875 -0.75 2.171875 -0.71875 C 2.171875 -0.707031 2.164062 -0.695312 2.15625 -0.6875 C 1.90625 -0.507812 1.640625 -0.335938 1.359375 -0.171875 C 1.078125 -0.00390625 0.816406 0.128906 0.578125 0.234375 C 0.347656 0.335938 0.171875 0.390625 0.046875 0.390625 Z M 0.3125 -0.828125 C 0.625 -1.035156 0.957031 -1.273438 1.3125 -1.546875 C 1.675781 -1.816406 2.023438 -2.097656 2.359375 -2.390625 C 2.703125 -2.679688 3.015625 -2.957031 3.296875 -3.21875 C 3.578125 -3.488281 3.800781 -3.726562 3.96875 -3.9375 C 4.132812 -4.144531 4.21875 -4.289062 4.21875 -4.375 C 4.21875 -4.425781 4.1875 -4.453125 4.125 -4.453125 C 4.007812 -4.453125 3.835938 -4.375 3.609375 -4.21875 C 3.378906 -4.0625 3.117188 -3.851562 2.828125 -3.59375 C 2.535156 -3.332031 2.226562 -3.039062 1.90625 -2.71875 C 1.59375 -2.40625 1.296875 -2.082031 1.015625 -1.75 C 0.742188 -1.425781 0.507812 -1.117188 0.3125 -0.828125 Z M 0.3125 -0.828125 "/></g></g></g><g fill="#000000" fill-opacity="1"><g transform="translate(17.227877, 19.218058)"><g><path d="M -2.0625 3.296875 C -2.132812 3.296875 -2.164062 3.25 -2.15625 3.15625 C -2.144531 3.113281 -2.082031 3.019531 -1.96875 2.875 C -1.863281 2.726562 -1.722656 2.539062 -1.546875 2.3125 C -1.367188 2.082031 -1.175781 1.835938 -0.96875 1.578125 C -0.757812 1.328125 -0.550781 1.070312 -0.34375 0.8125 C -0.132812 0.5625 0.0546875 0.332031 0.234375 0.125 C 0.234375 0.125 0.234375 0.113281 0.234375 0.09375 C 0.242188 0.0820312 0.253906 0.078125 0.265625 0.078125 L 0.28125 0.0625 C 0.289062 0.0390625 0.300781 0.0351562 0.3125 0.046875 C 0.40625 -0.0664062 0.488281 -0.164062 0.5625 -0.25 C 0.644531 -0.34375 0.707031 -0.421875 0.75 -0.484375 L 1 -0.765625 C 0.976562 -0.753906 0.957031 -0.738281 0.9375 -0.71875 C 0.925781 -0.707031 0.910156 -0.695312 0.890625 -0.6875 C 0.847656 -0.65625 0.804688 -0.625 0.765625 -0.59375 C 0.734375 -0.5625 0.703125 -0.53125 0.671875 -0.5 C 0.472656 -0.34375 0.304688 -0.222656 0.171875 -0.140625 C 0.046875 -0.0664062 -0.0546875 -0.03125 -0.140625 -0.03125 C -0.242188 -0.03125 -0.285156 -0.0820312 -0.265625 -0.1875 C -0.242188 -0.289062 -0.179688 -0.398438 -0.078125 -0.515625 C 0.0234375 -0.640625 0.140625 -0.742188 0.265625 -0.828125 C 0.398438 -0.910156 0.519531 -0.953125 0.625 -0.953125 C 0.738281 -0.953125 0.820312 -0.90625 0.875 -0.8125 L 0.875 -0.796875 C 1.050781 -0.953125 1.160156 -1.03125 1.203125 -1.03125 C 1.265625 -1.03125 1.28125 -1 1.25 -0.9375 C 1.21875 -0.875 1.160156 -0.796875 1.078125 -0.703125 C 1.003906 -0.609375 0.921875 -0.507812 0.828125 -0.40625 L 0.4375 0.046875 C 0.738281 0.046875 1.046875 -0.0195312 1.359375 -0.15625 C 1.671875 -0.300781 2.015625 -0.503906 2.390625 -0.765625 C 2.390625 -0.765625 2.398438 -0.765625 2.421875 -0.765625 C 2.453125 -0.765625 2.46875 -0.75 2.46875 -0.71875 C 2.46875 -0.707031 2.457031 -0.695312 2.4375 -0.6875 C 2.050781 -0.394531 1.6875 -0.175781 1.34375 -0.03125 C 1 0.101562 0.671875 0.164062 0.359375 0.15625 L 0.34375 0.171875 C 0.34375 0.203125 0.335938 0.234375 0.328125 0.265625 C 0.316406 0.296875 0.304688 0.332031 0.296875 0.375 C 0.265625 0.488281 0.191406 0.640625 0.078125 0.828125 C -0.0234375 1.015625 -0.148438 1.210938 -0.296875 1.421875 C -0.453125 1.640625 -0.613281 1.859375 -0.78125 2.078125 C -1.082031 2.441406 -1.347656 2.734375 -1.578125 2.953125 C -1.804688 3.179688 -1.96875 3.296875 -2.0625 3.296875 Z M -0.140625 -0.140625 C -0.015625 -0.140625 0.234375 -0.285156 0.609375 -0.578125 C 0.640625 -0.609375 0.671875 -0.632812 0.703125 -0.65625 C 0.734375 -0.6875 0.765625 -0.710938 0.796875 -0.734375 C 0.785156 -0.742188 0.78125 -0.753906 0.78125 -0.765625 C 0.75 -0.816406 0.695312 -0.84375 0.625 -0.84375 C 0.539062 -0.84375 0.4375 -0.804688 0.3125 -0.734375 C 0.195312 -0.660156 0.09375 -0.566406 0 -0.453125 C -0.09375 -0.347656 -0.144531 -0.253906 -0.15625 -0.171875 C -0.164062 -0.148438 -0.160156 -0.140625 -0.140625 -0.140625 Z M -2.0625 3.1875 C -1.988281 3.1875 -1.835938 3.078125 -1.609375 2.859375 C -1.390625 2.640625 -1.144531 2.359375 -0.875 2.015625 C -0.582031 1.648438 -0.335938 1.316406 -0.140625 1.015625 C 0.046875 0.710938 0.160156 0.488281 0.203125 0.34375 L 0.203125 0.3125 C -0.078125 0.65625 -0.347656 0.988281 -0.609375 1.3125 C -0.878906 1.632812 -1.125 1.929688 -1.34375 2.203125 C -1.5625 2.472656 -1.734375 2.695312 -1.859375 2.875 C -1.984375 3.050781 -2.050781 3.15625 -2.0625 3.1875 Z M -2.0625 3.1875 "/></g></g></g><g fill="#000000" fill-opacity="1"><g transform="translate(19.440919, 19.218058)"><g><path d="M 1.046875 0 C 0.828125 0 0.71875 -0.0859375 0.71875 -0.265625 C 0.71875 -0.316406 0.726562 -0.367188 0.75 -0.421875 C 0.78125 -0.484375 0.8125 -0.546875 0.84375 -0.609375 C 0.875 -0.648438 0.890625 -0.671875 0.890625 -0.671875 C 0.890625 -0.679688 0.863281 -0.664062 0.8125 -0.625 C 0.570312 -0.4375 0.382812 -0.296875 0.25 -0.203125 C 0.113281 -0.117188 0.0078125 -0.078125 -0.0625 -0.078125 C -0.144531 -0.078125 -0.1875 -0.117188 -0.1875 -0.203125 C -0.1875 -0.359375 -0.0195312 -0.59375 0.3125 -0.90625 C 0.332031 -0.914062 0.347656 -0.921875 0.359375 -0.921875 C 0.390625 -0.921875 0.40625 -0.90625 0.40625 -0.875 C 0.40625 -0.851562 0.398438 -0.835938 0.390625 -0.828125 C 0.0664062 -0.546875 -0.09375 -0.34375 -0.09375 -0.21875 C -0.09375 -0.1875 -0.0820312 -0.171875 -0.0625 -0.171875 C 0.03125 -0.171875 0.300781 -0.347656 0.75 -0.703125 C 1.019531 -0.921875 1.171875 -1.03125 1.203125 -1.03125 C 1.265625 -1.03125 1.28125 -1.003906 1.25 -0.953125 C 1.226562 -0.910156 1.195312 -0.863281 1.15625 -0.8125 C 1.082031 -0.726562 1.007812 -0.632812 0.9375 -0.53125 C 0.863281 -0.4375 0.828125 -0.347656 0.828125 -0.265625 C 0.828125 -0.148438 0.898438 -0.09375 1.046875 -0.09375 C 1.140625 -0.09375 1.28125 -0.125 1.46875 -0.1875 C 1.65625 -0.257812 1.851562 -0.347656 2.0625 -0.453125 C 2.269531 -0.554688 2.453125 -0.660156 2.609375 -0.765625 C 2.609375 -0.773438 2.617188 -0.78125 2.640625 -0.78125 C 2.671875 -0.78125 2.6875 -0.757812 2.6875 -0.71875 C 2.6875 -0.707031 2.679688 -0.695312 2.671875 -0.6875 C 2.515625 -0.582031 2.328125 -0.476562 2.109375 -0.375 C 1.898438 -0.269531 1.695312 -0.179688 1.5 -0.109375 C 1.300781 -0.0351562 1.148438 0 1.046875 0 Z M 1.046875 0 "/></g></g></g><g fill="#000000" fill-opacity="1"><g transform="translate(21.875265, 19.218058)"><g><path d="M 0.640625 -1.140625 C 0.597656 -1.140625 0.578125 -1.15625 0.578125 -1.1875 C 0.578125 -1.207031 0.582031 -1.21875 0.59375 -1.21875 L 0.625 -1.265625 C 0.632812 -1.273438 0.648438 -1.289062 0.671875 -1.3125 C 0.691406 -1.34375 0.703125 -1.363281 0.703125 -1.375 C 0.710938 -1.382812 0.726562 -1.390625 0.75 -1.390625 C 0.78125 -1.390625 0.796875 -1.375 0.796875 -1.34375 C 0.796875 -1.320312 0.789062 -1.304688 0.78125 -1.296875 C 0.757812 -1.273438 0.734375 -1.242188 0.703125 -1.203125 L 0.671875 -1.15625 C 0.671875 -1.144531 0.660156 -1.140625 0.640625 -1.140625 Z M 0.078125 0.046875 C -0.0859375 0.046875 -0.171875 -0.0234375 -0.171875 -0.171875 C -0.171875 -0.253906 -0.117188 -0.367188 -0.015625 -0.515625 C 0.078125 -0.660156 0.207031 -0.816406 0.375 -0.984375 C 0.375 -0.992188 0.382812 -1 0.40625 -1 C 0.4375 -1 0.453125 -0.984375 0.453125 -0.953125 C 0.453125 -0.941406 0.445312 -0.925781 0.4375 -0.90625 C 0.289062 -0.757812 0.164062 -0.617188 0.0625 -0.484375 C -0.03125 -0.347656 -0.078125 -0.242188 -0.078125 -0.171875 C -0.078125 -0.0859375 -0.0234375 -0.046875 0.078125 -0.046875 C 0.140625 -0.046875 0.238281 -0.0664062 0.375 -0.109375 C 0.507812 -0.160156 0.660156 -0.222656 0.828125 -0.296875 C 0.992188 -0.367188 1.15625 -0.445312 1.3125 -0.53125 C 1.46875 -0.613281 1.601562 -0.691406 1.71875 -0.765625 L 1.75 -0.765625 C 1.78125 -0.765625 1.796875 -0.75 1.796875 -0.71875 C 1.796875 -0.707031 1.789062 -0.695312 1.78125 -0.6875 C 1.664062 -0.601562 1.523438 -0.519531 1.359375 -0.4375 C 1.191406 -0.351562 1.023438 -0.273438 0.859375 -0.203125 C 0.691406 -0.128906 0.535156 -0.0664062 0.390625 -0.015625 C 0.253906 0.0234375 0.148438 0.046875 0.078125 0.046875 Z M 0.078125 0.046875 "/></g></g></g></svg>